<svg xmlns="http://www.w3.org/2000/svg" xmlns:xlink="http://www.w3.org/1999/xlink" width="100" zoomAndPan="magnify" viewBox="0 0 75 74.999997" height="100" preserveAspectRatio="xMidYMid meet" version="1.0"><rect x="-7.5" width="90" fill="#ffffff" y="-7.5" height="89.999996" fill-opacity="1"/><rect x="-7.5" width="90" fill="#000000" y="-7.5" height="89.999996" fill-opacity="1"/><path fill="#396791" d="M 75 63.601562 C 75 69.886719 69.886719 75 63.601562 75 L 11.398438 75 C 5.113281 75 0 69.886719 0 63.601562 L 0 11.398438 C 0 5.113281 5.113281 0 11.398438 0 L 63.601562 0 C 69.886719 0 75 5.113281 75 11.398438 Z M 75 63.601562 " fill-opacity="1" fill-rule="nonzero"/><path fill="#ffffff" d="M 21.816406 16.628906 L 54.238281 16.628906 C 57.316406 16.628906 59.847656 19.144531 59.847656 22.234375 L 59.847656 54.65625 C 59.847656 57.734375 57.328125 60.25 54.238281 60.25 L 21.816406 60.25 C 18.738281 60.25 16.210938 57.734375 16.210938 54.65625 L 16.210938 22.234375 C 16.210938 19.144531 18.726562 16.628906 21.816406 16.628906 Z M 47.980469 21.480469 C 46.894531 21.480469 46.023438 22.367188 46.023438 23.449219 L 46.023438 28.15625 C 46.023438 29.238281 46.910156 30.125 47.980469 30.125 L 52.894531 30.125 C 53.976562 30.125 54.851562 29.238281 54.851562 28.15625 L 54.851562 23.449219 C 54.851562 22.367188 53.964844 21.480469 52.894531 21.480469 Z M 54.902344 35.082031 L 51.070312 35.082031 C 51.421875 36.28125 51.628906 37.519531 51.628906 38.824219 C 51.628906 46.074219 45.554688 51.957031 38.082031 51.957031 C 30.609375 51.957031 24.53125 46.074219 24.53125 38.824219 C 24.53125 37.519531 24.726562 36.269531 25.089844 35.082031 L 21.085938 35.082031 L 21.085938 53.507812 C 21.085938 54.460938 21.871094 55.230469 22.820312 55.230469 L 53.195312 55.230469 C 54.148438 55.230469 54.929688 54.445312 54.929688 53.507812 Z M 38.054688 29.863281 C 33.230469 29.863281 29.304688 33.671875 29.304688 38.355469 C 29.304688 43.035156 33.230469 46.84375 38.054688 46.84375 C 42.890625 46.84375 46.804688 43.035156 46.804688 38.355469 C 46.816406 33.644531 42.90625 29.863281 38.054688 29.863281 Z M 38.054688 29.863281 " fill-opacity="1" fill-rule="nonzero"/></svg>