<svg xmlns="http://www.w3.org/2000/svg" xmlns:xlink="http://www.w3.org/1999/xlink" width="100" zoomAndPan="magnify" viewBox="0 0 75 74.999997" height="100" preserveAspectRatio="xMidYMid meet" version="1.0"><rect x="-7.5" width="90" fill="#ffffff" y="-7.5" height="89.999996" fill-opacity="1"/><rect x="-7.5" width="90" fill="#000000" y="-7.5" height="89.999996" fill-opacity="1"/><path fill="#2197bd" d="M 75 63.597656 C 75 69.890625 69.898438 74.992188 63.601562 74.992188 L 11.398438 74.992188 C 5.105469 74.992188 0.00390625 69.890625 0.00390625 63.597656 L 0.00390625 11.390625 C 0.00390625 5.097656 5.105469 -0.00390625 11.398438 -0.00390625 L 63.601562 -0.00390625 C 69.898438 -0.00390625 75 5.097656 75 11.390625 Z M 75 63.597656 " fill-opacity="1" fill-rule="nonzero"/><path fill="#ffffff" d="M 29.660156 26.753906 C 29.660156 27.121094 29.621094 27.484375 29.550781 27.84375 C 29.480469 28.207031 29.371094 28.554688 29.230469 28.894531 C 29.089844 29.234375 28.917969 29.558594 28.714844 29.863281 C 28.507812 30.171875 28.277344 30.453125 28.015625 30.714844 C 27.757812 30.972656 27.472656 31.207031 27.167969 31.410156 C 26.863281 31.613281 26.539062 31.789062 26.199219 31.929688 C 25.859375 32.070312 25.507812 32.175781 25.148438 32.246094 C 24.789062 32.320312 24.421875 32.355469 24.054688 32.355469 C 23.6875 32.355469 23.324219 32.320312 22.960938 32.246094 C 22.601562 32.175781 22.25 32.070312 21.910156 31.929688 C 21.570312 31.789062 21.25 31.613281 20.941406 31.410156 C 20.636719 31.207031 20.355469 30.972656 20.09375 30.714844 C 19.835938 30.453125 19.601562 30.171875 19.398438 29.863281 C 19.191406 29.558594 19.019531 29.234375 18.878906 28.894531 C 18.738281 28.554688 18.632812 28.207031 18.5625 27.84375 C 18.488281 27.484375 18.453125 27.121094 18.453125 26.753906 C 18.453125 26.382812 18.488281 26.019531 18.5625 25.660156 C 18.632812 25.296875 18.738281 24.949219 18.878906 24.609375 C 19.019531 24.269531 19.191406 23.945312 19.398438 23.640625 C 19.601562 23.332031 19.835938 23.050781 20.09375 22.789062 C 20.355469 22.53125 20.636719 22.296875 20.941406 22.09375 C 21.25 21.890625 21.570312 21.71875 21.910156 21.578125 C 22.25 21.433594 22.601562 21.328125 22.960938 21.257812 C 23.324219 21.1875 23.6875 21.148438 24.054688 21.148438 C 24.421875 21.148438 24.789062 21.1875 25.148438 21.257812 C 25.507812 21.328125 25.859375 21.433594 26.199219 21.578125 C 26.539062 21.71875 26.863281 21.890625 27.167969 22.09375 C 27.472656 22.296875 27.757812 22.53125 28.015625 22.789062 C 28.277344 23.050781 28.507812 23.332031 28.714844 23.640625 C 28.917969 23.945312 29.089844 24.269531 29.230469 24.609375 C 29.371094 24.949219 29.480469 25.296875 29.550781 25.660156 C 29.621094 26.019531 29.660156 26.382812 29.660156 26.753906 Z M 29.660156 26.753906 " fill-opacity="1" fill-rule="nonzero"/><path fill="#ffffff" d="M 19.226562 36.484375 L 28.851562 36.484375 L 28.851562 67.449219 L 19.226562 67.449219 Z M 19.226562 36.484375 " fill-opacity="1" fill-rule="nonzero"/><path fill="#ffffff" d="M 34.90625 36.484375 L 44.066406 36.484375 L 44.066406 67.449219 L 34.90625 67.449219 Z M 34.90625 36.484375 " fill-opacity="1" fill-rule="nonzero"/><path fill="#ffffff" d="M 35.300781 52.972656 L 44.460938 52.972656 L 44.460938 67.449219 L 35.300781 67.449219 Z M 35.300781 52.972656 " fill-opacity="1" fill-rule="nonzero"/><path fill="#ffffff" d="M 44.460938 52.972656 C 44.460938 52.972656 44.316406 48.953125 45.378906 46.867188 C 45.378906 46.867188 46.4375 44.296875 49.765625 44.28125 C 49.765625 44.28125 53.671875 43.597656 54.789062 47.472656 C 54.789062 47.472656 55.214844 49.621094 55.214844 50.53125 C 55.214844 51.4375 55.246094 67.449219 55.246094 67.449219 L 64.839844 67.449219 L 64.839844 49.710938 C 64.839844 49.710938 65.535156 39.695312 59.523438 36.949219 C 59.523438 36.949219 49.632812 32.511719 44.269531 40.664062 C 44.269531 40.664062 43.097656 41.46875 42.933594 39.210938 C 42.773438 36.949219 41.402344 42.679688 41.363281 42.800781 C 41.320312 42.921875 42.933594 54.222656 42.933594 54.222656 Z M 44.460938 52.972656 " fill-opacity="1" fill-rule="nonzero"/></svg>